<svg xmlns="http://www.w3.org/2000/svg" xmlns:xlink="http://www.w3.org/1999/xlink" width="329.688" height="100" viewBox="0 0 329.688 100">
  <defs>
    <linearGradient id="linear-gradient" x1="0.5" x2="0.5" y2="1" gradientUnits="objectBoundingBox">
      <stop offset="0" stop-color="#e165f4"/>
      <stop offset="1" stop-color="#5660e9"/>
    </linearGradient>
  </defs>
  <g id="logo" transform="translate(-157 -356)">
    <g id="Group_3481" data-name="Group 3481" transform="translate(-1051.078 -150.568)">
      <g id="Group_3432" data-name="Group 3432" transform="translate(1338.078 365.124)">
        <g id="Group_3480" data-name="Group 3480" transform="translate(0 171.444)">
          <text id="Findirl" fill="#1e1e1e" font-size="54" font-family="Fonarto-Regular, Fonarto"><tspan x="0" y="38">Findirl</tspan></text>
          <g id="Group_3470" data-name="Group 3470" transform="translate(155.068 0)">
            <path id="Path_10660" data-name="Path 10660" d="M-8571.068-180.554l2.755-15.64-7.909-16.179a11.679,11.679,0,0,0-1.953-2.824,7.967,7.967,0,0,0-2.415-1.612,4.717,4.717,0,0,0-2.095-.411l.165-1.114,6.251.051a4.4,4.4,0,0,1,2.328.812,10.372,10.372,0,0,1,1.959,1.7,10.6,10.6,0,0,1,1.509,2.423c.551,1.306,1.175,2.539,1.175,2.539l1.27,2.8,3.762,7.92v.112a26.388,26.388,0,0,0-2.039,4.478,11.342,11.342,0,0,0-.574,2.82,13.5,13.5,0,0,0,.287,4.8,19.39,19.39,0,0,0,1.036,2.932c.006-.01.278.526.278.526l-.64,3.876Z" transform="translate(8582.686 218.681)" fill="#1e1e1e"/>
            <path id="Path_10661" data-name="Path 10661" d="M-8263.084-217.2a3.753,3.753,0,0,1-3.936-1.678,3.815,3.815,0,0,1,.259-4.189,3.541,3.541,0,0,1,2.538-1.348,3.55,3.55,0,0,1,2.857,1.028,4.17,4.17,0,0,1,1.193,1.908,7.194,7.194,0,0,1,.123,2.341,15.68,15.68,0,0,1-.6,2.145,16.674,16.674,0,0,1-3.322,4.584c-2.193,2.292-4.536,4.572-4.536,4.572s-2.242,2.513-2.572,3.089a18.351,18.351,0,0,0-2.049,3.579,11.1,11.1,0,0,0-.82,3.212c-.061.784-.171,3.726.969,5.577a10.489,10.489,0,0,0,4.682,4.707c3.163,1.9,7.516.755,7.993.58a10.834,10.834,0,0,0,4.908-3.569,10.543,10.543,0,0,0,1.929-4.414,11.229,11.229,0,0,0-.4-5.227,11.134,11.134,0,0,0-.686-1.5,6.083,6.083,0,0,1,3.123,2.5,10.087,10.087,0,0,1,2.151,4.621,6.912,6.912,0,0,1,.176,1.705,9.914,9.914,0,0,0-1.514-2.1c-.591-.446-.542-.382-.542-.382s-.63,4.465-3.08,6.835-3.689,3.5-7.757,4.147a12.26,12.26,0,0,1-9.318-2.478,11.717,11.717,0,0,1-3.877-4.955,14.323,14.323,0,0,1-1.051-4.686c-.377-2.666,1.994-7.487,1.994-7.487a44.694,44.694,0,0,1,5.385-6.625,49.621,49.621,0,0,0,4.39-4.39c.162-.215,1.377-1.829,1.389-1.9A1.15,1.15,0,0,0-8263.084-217.2Z" transform="translate(8293.719 224.415)" fill="#1e1e1e"/>
          </g>
        </g>
      </g>
    </g>
    <g id="Group_3478" data-name="Group 3478" transform="translate(-295.077 15.583)">
      <rect id="Rectangle_3335" data-name="Rectangle 3335" width="100" height="100" rx="30" transform="translate(452.077 340.417)" fill="url(#linear-gradient)"/>
      <rect id="Rectangle_3336" data-name="Rectangle 3336" width="50.609" height="15.237" rx="7.619" transform="translate(480.431 361.596)" fill="#fff"/>
      <rect id="Rectangle_3337" data-name="Rectangle 3337" width="35.099" height="15.237" rx="7.619" transform="translate(480.431 383.089)" fill="#fff"/>
      <rect id="Rectangle_3342" data-name="Rectangle 3342" width="18.659" height="15.237" rx="7.618" transform="translate(480.427 404.583)" fill="#fff"/>
    </g>
  </g>
</svg>
